<?xml version="1.0" encoding="UTF-8" standalone="no"?>
<svg
   width="515.88281pt"
   height="85.304688pt"
   viewBox="0 0 515.88281 85.304689"
   version="1.1"
   id="svg184"
   sodipodi:docname="eoas-ubc.svg"
   inkscape:version="1.2.1 (9c6d41e410, 2022-07-14, custom)"
   xmlns:inkscape="http://www.inkscape.org/namespaces/inkscape"
   xmlns:sodipodi="http://sodipodi.sourceforge.net/DTD/sodipodi-0.dtd"
   xmlns="http://www.w3.org/2000/svg"
   xmlns:svg="http://www.w3.org/2000/svg">
  <defs
     id="defs188" />
  <sodipodi:namedview
     id="namedview186"
     pagecolor="#575757"
     bordercolor="#000000"
     borderopacity="0.25"
     inkscape:showpageshadow="2"
     inkscape:pageopacity="0"
     inkscape:pagecheckerboard="0"
     inkscape:deskcolor="#d1d1d1"
     inkscape:document-units="pt"
     showgrid="false"
     inkscape:zoom="1.2549082"
     inkscape:cx="344.64673"
     inkscape:cy="54.984102"
     inkscape:window-width="1920"
     inkscape:window-height="1052"
     inkscape:window-x="1050"
     inkscape:window-y="129"
     inkscape:window-maximized="1"
     inkscape:current-layer="svg184" />
  <g
     id="g1063"
     transform="translate(-24.75,-24.746094)">
    <path
       fill-rule="nonzero"
       fill="#ffffff"
       fill-opacity="1"
       d="m 49.5,49.8125 2.640625,19.144531 8.671875,-14.492187 -3.679688,15.941406 9.347657,-8.945312 -4.867188,11.808593 7.78125,-5.804687 C 65.773438,77.320312 62.617188,82.84375 49.5,87.335938 36.382812,82.84375 33.230469,77.320312 29.609375,67.464844 L 37.386719,73.269531 32.519531,61.460938 41.867188,70.40625 38.1875,54.464844 46.859375,68.957031 49.5,49.8125"
       id="path2" />
    <path
       fill-rule="nonzero"
       fill="#ffffff"
       fill-opacity="1"
       d="m 35.761719,43.398438 c -3.976563,0 -6.347657,-2.125 -6.347657,-5.699219 v -8.554688 h 3.292969 v 8.421875 c 0,2.074219 1.09375,3.214844 3.078125,3.214844 2.039063,0 3.117188,-1.09375 3.117188,-3.15625 v -8.480469 h 3.316406 v 8.5 c 0,3.550781 -2.476562,5.753907 -6.457031,5.753907"
       id="path4" />
    <path
       fill-rule="nonzero"
       fill="#ffffff"
       fill-opacity="1"
       d="M 49.625,43.164062 H 45.023438 V 29.144531 h 4.667968 c 3.414063,0 5.292969,1.328125 5.292969,3.722657 0,1.265624 -0.65625,2.234374 -1.910156,2.828124 1.683593,0.59375 2.535156,1.707032 2.535156,3.316407 0,2.679687 -2.125,4.152343 -5.984375,4.152343 M 48.207031,40.824219 H 49.625 c 1.28125,0 2.804688,-0.328125 2.804688,-1.890625 0,-1.609375 -1.550782,-1.953125 -2.851563,-1.953125 h -1.371094 z m 0,-6.046875 h 1.195313 c 1.605468,0 2.492187,-0.601563 2.492187,-1.691406 0,-1.074219 -0.773437,-1.597657 -2.363281,-1.597657 h -1.324219 v 3.289063"
       id="path6" />
    <path
       fill-rule="nonzero"
       fill="#ffffff"
       fill-opacity="1"
       d="m 64.839844,43.398438 c -4.535156,0 -7.46875,-2.832032 -7.46875,-7.226563 0,-4.339844 3.039062,-7.261719 7.558594,-7.261719 1.675781,0 3.085937,0.332032 4.308593,1.011719 l 0.109375,0.05859 -0.492187,2.855469 -0.214844,-0.144532 c -1.203125,-0.808594 -2.351563,-1.179687 -3.601563,-1.179687 -2.691406,0 -4.304687,1.734375 -4.304687,4.644531 0,2.855469 1.667969,4.625 4.351563,4.625 1.269531,0 2.523437,-0.378906 3.824218,-1.164062 l 0.21875,-0.128907 0.464844,2.660157 -0.105469,0.0625 c -1.335937,0.765624 -2.988281,1.1875 -4.648437,1.1875"
       id="path8" />
    <path
       fill-rule="nonzero"
       fill="#ffffff"
       fill-opacity="1"
       d="M 49.5,90.304688 C 34.015625,85.917969 26.625,75.695312 26.625,61.121094 v -34.5 h 45.75 v 34.5 c 0,14.574218 -7.390625,24.796875 -22.875,29.183594 M 24.75,24.746094 v 36.609375 c 0,15.382812 8.371094,26.523437 24.75,30.890625 C 65.878906,87.878906 74.25,76.738281 74.25,61.355469 V 24.746094 h -49.5"
       id="path10" />
    <path
       fill-rule="nonzero"
       fill="#ffffff"
       fill-opacity="1"
       d="m 49.5,48.128906 c 3.453125,0 3.917969,1.398438 6.699219,1.382813 2.769531,0.01563 3.242187,-1.382813 6.695312,-1.382813 3.449219,0 3.925781,1.398438 6.695313,1.382813 v -3.214844 c -2.769532,0.01953 -3.246094,-1.363281 -6.695313,-1.363281 -3.453125,0 -3.925781,1.382812 -6.695312,1.363281 -2.78125,0.01953 -3.246094,-1.363281 -6.699219,-1.363281 -3.449219,0 -3.917969,1.382812 -6.695312,1.363281 -2.769532,0.01953 -3.246094,-1.363281 -6.695313,-1.363281 -3.453125,0 -3.929687,1.382812 -6.699219,1.363281 v 3.214844 c 2.769532,0.01563 3.246094,-1.382813 6.699219,-1.382813 3.449219,0 3.925781,1.398438 6.695313,1.382813 2.777343,0.01563 3.246093,-1.382813 6.695312,-1.382813"
       id="path12" />
    <path
       fill-rule="nonzero"
       fill="#ffffff"
       fill-opacity="1"
       d="m 51.6875,53.933594 c 1.664062,0.402344 2.457031,1.160156 4.511719,1.148437 2.769531,0.01563 3.242187,-1.382812 6.695312,-1.382812 3.449219,0 3.925781,1.398437 6.695313,1.382812 v -3.214843 c -2.769532,0.01953 -3.246094,-1.363282 -6.695313,-1.363282 -3.453125,0 -3.925781,1.382813 -6.695312,1.363282 -2.234375,0.01562 -2.976563,-0.871094 -4.964844,-1.222657 l 0.453125,3.289063"
       id="path14" />
    <path
       fill-rule="nonzero"
       fill="#ffffff"
       fill-opacity="1"
       d="m 42.804688,55.082031 c 2.050781,0.01172 2.84375,-0.746093 4.507812,-1.144531 l 0.453125,-3.292969 c -1.988281,0.351563 -2.730469,1.238281 -4.960937,1.222657 -2.769532,0.01953 -3.246094,-1.363282 -6.695313,-1.363282 -3.453125,0 -3.929687,1.382813 -6.699219,1.363282 v 3.214843 c 2.769532,0.01563 3.246094,-1.382812 6.699219,-1.382812 3.449219,0 3.925781,1.398437 6.695313,1.382812"
       id="path16" />
    <path
       fill-rule="nonzero"
       fill="#ffffff"
       fill-opacity="1"
       d="m 52.488281,59.742188 c 0.941407,0.324218 1.664063,0.71875 2.78125,0.859374 l 1.929688,-3.222656 c -0.300781,0.03906 -0.628907,0.0625 -1,0.0625 -1.910157,0.01172 -2.730469,-0.636718 -4.171875,-1.046875 l 0.460937,3.347657"
       id="path18" />
    <path
       fill-rule="nonzero"
       fill="#ffffff"
       fill-opacity="1"
       d="m 61.324219,59.386719 c 0.449219,-0.07422 0.960937,-0.117188 1.570312,-0.117188 3.449219,0 3.925781,1.402344 6.695313,1.382813 V 57.4375 c -2.769532,0.01953 -3.246094,-1.363281 -6.695313,-1.363281 -0.292969,0 -0.5625,0.01172 -0.8125,0.02734 l -0.757812,3.285157"
       id="path20" />
    <path
       fill-rule="nonzero"
       fill="#ffffff"
       fill-opacity="1"
       d="m 37.675781,59.386719 -0.757812,-3.28125 c -0.25,-0.01953 -0.519531,-0.03125 -0.808594,-0.03125 -3.453125,0 -3.929687,1.382812 -6.699219,1.363281 v 3.214844 c 2.769532,0.01953 3.246094,-1.382813 6.699219,-1.382813 0.605469,0 1.117187,0.04297 1.566406,0.117188"
       id="path22" />
    <path
       fill-rule="nonzero"
       fill="#ffffff"
       fill-opacity="1"
       d="m 43.730469,60.601562 c 1.117187,-0.140624 1.839843,-0.535156 2.78125,-0.859374 l 0.460937,-3.34375 c -1.441406,0.40625 -2.261718,1.054687 -4.167968,1.039062 -0.375,0.0039 -0.703126,-0.01953 -1.003907,-0.0625 l 1.929688,3.226562"
       id="path24" />
    <path
       fill-rule="nonzero"
       fill="#ffffff"
       fill-opacity="1"
       d="m 104.18359,43.164062 h -2.42187 V 32.949219 h -3.804689 v -2.160157 h 9.890629 l 0.32422,2.160157 h -3.98829 v 10.214843"
       id="path26" />
    <path
       fill-rule="nonzero"
       fill="#ffffff"
       fill-opacity="1"
       d="m 122.90234,43.164062 h -2.42187 v -5.335937 h -5.32813 v 5.335937 h -2.39843 v -12.375 h 2.39843 v 4.832032 h 5.32813 v -4.832032 h 2.42187 v 12.375"
       id="path28" />
    <path
       fill-rule="nonzero"
       fill="#ffffff"
       fill-opacity="1"
       d="m 137.76172,43.164062 h -7.95313 v -12.375 h 7.78516 v 2.136719 h -5.38281 v 2.738281 H 136.5 l 0.35156,2.140626 h -4.64062 v 3.222656 h 5.55078 v 2.136718"
       id="path30" />
    <path
       fill-rule="nonzero"
       fill="#ffffff"
       fill-opacity="1"
       d="m 156.41406,43.402344 c -3.16406,0 -5.05078,-1.898438 -5.05078,-5.078125 v -7.535157 h 2.39844 v 7.441407 c 0,1.988281 0.94922,3.082031 2.67187,3.082031 1.76953,0 2.70313,-1.046875 2.70313,-3.03125 v -7.492188 h 2.42187 v 7.441407 c 0,3.238281 -1.92578,5.171875 -5.14453,5.171875"
       id="path32" />
    <path
       fill-rule="nonzero"
       fill="#ffffff"
       fill-opacity="1"
       d="m 178.25781,43.164062 h -2.08203 l -5.88672,-8.671874 v 8.671874 h -2.20312 v -12.375 h 2.34375 l 5.62109,8.308594 v -8.308594 h 2.20703 v 12.375"
       id="path34" />
    <path
       fill-rule="nonzero"
       fill="#ffffff"
       fill-opacity="1"
       d="m 187.55859,43.164062 h -2.42187 v -12.375 h 2.42187 v 12.375"
       id="path36" />
    <path
       fill-rule="nonzero"
       fill="#ffffff"
       fill-opacity="1"
       d="m 199.28125,43.351562 h -2.17578 l -4.77344,-12.265624 2.42578,-0.527344 3.53125,9.65625 3.45703,-9.425782 h 2.44141 l -4.90625,12.5625"
       id="path38" />
    <path
       fill-rule="nonzero"
       fill="#ffffff"
       fill-opacity="1"
       d="M 216.70312,43.164062 H 208.75 v -12.375 h 7.78516 v 2.136719 h -5.38282 v 2.738281 h 4.28516 l 0.35547,2.140626 h -4.64063 v 3.222656 h 5.55078 v 2.136718"
       id="path40" />
    <path
       fill-rule="nonzero"
       fill="#ffffff"
       fill-opacity="1"
       d="m 225.17969,36.550781 h 1.46093 c 1.49219,0 2.3125,-0.664062 2.3125,-1.886719 0,-1.457031 -1.25781,-1.765624 -2.3125,-1.765624 h -1.46093 z m 4.66015,6.769531 -3.52734,-4.84375 h -1.13281 v 4.6875 h -2.40235 v -12.375 h 3.88282 c 2.9375,0 4.69531,1.4375 4.69531,3.855469 0,1.6875 -0.85156,2.890625 -2.46094,3.5 l 3.43359,4.613281 -2.48828,0.5625"
       id="path42" />
    <path
       fill-rule="nonzero"
       fill="#ffffff"
       fill-opacity="1"
       d="m 241.14062,43.328125 c -1.30859,0 -2.8125,-0.324219 -4.20312,-0.917969 l -0.0937,-0.03906 0.35547,-2.203125 0.14844,0.07813 c 1.23828,0.648437 2.76562,1.066406 3.89062,1.066406 1.36328,0 2.24609,-0.601562 2.24609,-1.523438 0,-0.921874 -0.57812,-1.277343 -2.3125,-1.875 -2.59375,-0.902343 -3.91015,-1.722656 -3.91015,-3.679687 0,-2.125 1.72265,-3.617187 4.1875,-3.617187 1.2539,0 2.52344,0.265624 3.5664,0.730468 l 0.0859,0.04297 -0.34765,2.246094 -0.15235,-0.07813 c -1.15625,-0.601563 -2.21094,-0.894532 -3.21875,-0.894532 -1.07812,0 -1.89062,0.558594 -1.89062,1.308594 0,0.824219 0.5625,1.140625 2.47656,1.796875 2.42969,0.847657 3.74609,1.695313 3.74609,3.753907 0,2.269531 -1.83593,3.804687 -4.57422,3.804687"
       id="path44" />
    <path
       fill-rule="nonzero"
       fill="#ffffff"
       fill-opacity="1"
       d="m 254.12891,43.164062 h -2.42579 v -12.375 h 2.42579 v 12.375"
       id="path46" />
    <path
       fill-rule="nonzero"
       fill="#ffffff"
       fill-opacity="1"
       d="m 265.02344,43.164062 h -2.41797 V 32.949219 h -3.80469 v -2.160157 h 9.89063 l 0.32421,2.160157 h -3.99218 v 10.214843"
       id="path48" />
    <path
       fill-rule="nonzero"
       fill="#ffffff"
       fill-opacity="1"
       d="m 277.48828,43.164062 h -2.42187 v -4.777343 l -4.42579,-7.300781 2.45704,-0.523438 3.21093,5.628906 3.11328,-5.402344 h 2.66016 l -4.59375,7.570313 v 4.804687"
       id="path50" />
    <path
       fill-rule="nonzero"
       fill="#ffffff"
       fill-opacity="1"
       d="m 297.55859,32.636719 c -2.09765,0 -3.51953,1.738281 -3.51953,4.328125 0,2.53125 1.48047,4.375 3.51953,4.375 2.08594,0 3.49219,-1.75 3.49219,-4.351563 0,-2.519531 -1.47266,-4.351562 -3.49219,-4.351562 m 0,10.761719 c -2.96484,0 -5.96093,-2.199219 -5.96093,-6.410157 0,-4.226562 2.99609,-6.433593 5.96093,-6.433593 2.94922,0 5.92969,2.199218 5.92969,6.410156 0,4.222656 -2.98047,6.433594 -5.92969,6.433594"
       id="path52" />
    <path
       fill-rule="nonzero"
       fill="#ffffff"
       fill-opacity="1"
       d="m 311.45312,43.164062 h -2.39453 v -12.375 h 7.58985 v 2.136719 h -5.19532 v 2.933594 h 4.07422 l 0.35547,2.136719 h -4.42969 v 5.167968"
       id="path54" />
    <path
       fill-rule="nonzero"
       fill="#ffffff"
       fill-opacity="1"
       d="m 332.04687,35.71875 h 1.57813 c 1.37891,0 2.07422,-0.515625 2.07422,-1.527344 0,-0.585937 -0.21094,-1.363281 -2.00391,-1.363281 h -1.64844 z m 0,5.429688 h 1.78907 c 1.60937,0 2.39062,-0.550782 2.39062,-1.675782 0,-1.183594 -0.79297,-1.789062 -2.36328,-1.789062 h -1.81641 z m 1.76954,2.015624 h -4.07422 v -12.375 h 4.04687 c 2.60547,0 4.16016,1.199219 4.16016,3.207032 0,1.1875 -0.51172,2.0625 -1.53906,2.609375 1.39062,0.503906 2.09765,1.46875 2.09765,2.867187 0,2.375 -1.66797,3.691406 -4.6914,3.691406"
       id="path56" />
    <path
       fill-rule="nonzero"
       fill="#ffffff"
       fill-opacity="1"
       d="m 346.76172,36.550781 h 1.45703 c 1.48828,0 2.3125,-0.664062 2.3125,-1.886719 0,-1.457031 -1.25781,-1.765624 -2.3125,-1.765624 h -1.45703 z m 4.64844,6.769531 -3.52344,-4.84375 h -1.125 v 4.6875 h -2.40235 v -12.375 h 3.87891 c 2.94141,0 4.69531,1.4375 4.69531,3.855469 0,1.6875 -0.85547,2.890625 -2.46093,3.5 l 3.42968,4.613281 -2.49218,0.5625"
       id="path58" />
    <path
       fill-rule="nonzero"
       fill="#ffffff"
       fill-opacity="1"
       d="m 361.62891,43.164062 h -2.42579 v -12.375 h 2.42579 v 12.375"
       id="path60" />
    <path
       fill-rule="nonzero"
       fill="#ffffff"
       fill-opacity="1"
       d="M 372.54297,43.164062 H 370.125 V 32.949219 h -3.80469 v -2.160157 h 9.89063 l 0.32031,2.160157 h -3.98828 v 10.214843"
       id="path62" />
    <path
       fill-rule="nonzero"
       fill="#ffffff"
       fill-opacity="1"
       d="m 383.38281,43.164062 h -2.42187 v -12.375 h 2.42187 v 12.375"
       id="path64" />
    <path
       fill-rule="nonzero"
       fill="#ffffff"
       fill-opacity="1"
       d="m 393.37891,43.328125 c -1.31641,0 -2.8125,-0.324219 -4.21094,-0.917969 l -0.0899,-0.03906 0.35157,-2.203125 0.14843,0.07813 c 1.2461,0.648437 2.77344,1.066406 3.89454,1.066406 1.36328,0 2.24609,-0.601562 2.24609,-1.523438 0,-0.921874 -0.57813,-1.277343 -2.31641,-1.875 -2.58593,-0.902343 -3.91015,-1.722656 -3.91015,-3.679687 0,-2.125 1.73047,-3.617187 4.19531,-3.617187 1.25,0 2.51562,0.265624 3.5625,0.730468 l 0.0898,0.04297 -0.35156,2.246094 -0.15234,-0.07813 c -1.15235,-0.601563 -2.20703,-0.894532 -3.22266,-0.894532 -1.07422,0 -1.88672,0.558594 -1.88672,1.308594 0,0.824219 0.5586,1.140625 2.47656,1.796875 2.42969,0.847657 3.74219,1.695313 3.74219,3.753907 0,2.269531 -1.83594,3.804687 -4.5664,3.804687"
       id="path66" />
    <path
       fill-rule="nonzero"
       fill="#ffffff"
       fill-opacity="1"
       d="m 413.36328,43.164062 h -2.42187 v -5.335937 h -5.32422 v 5.335937 h -2.39844 v -12.375 h 2.39844 v 4.832032 h 5.32422 v -4.832032 h 2.42187 v 12.375"
       id="path68" />
    <path
       fill-rule="nonzero"
       fill="#ffffff"
       fill-opacity="1"
       d="m 431.94531,43.402344 c -3.55859,0 -5.95703,-2.566406 -5.95703,-6.390625 0,-3.863281 2.39844,-6.457031 5.95703,-6.457031 1.41406,0 2.55078,0.296874 3.5625,0.949218 l 0.0703,0.04297 -0.38281,2.261719 -0.16406,-0.117188 c -0.97656,-0.734375 -1.92969,-1.078125 -3.01172,-1.078125 -2.22656,0 -3.55859,1.640625 -3.55859,4.375 0,2.695313 1.3789,4.371094 3.60547,4.371094 1.07031,0 2.18359,-0.378906 3.20703,-1.097656 l 0.16406,-0.113281 0.33203,2.113281 -0.0742,0.03906 c -1.07031,0.707031 -2.39844,1.101563 -3.75,1.101563"
       id="path70" />
    <path
       fill-rule="nonzero"
       fill="#ffffff"
       fill-opacity="1"
       d="m 446.17187,32.636719 c -2.10546,0 -3.51562,1.738281 -3.51562,4.328125 0,2.53125 1.48047,4.375 3.51562,4.375 2.08204,0 3.48438,-1.75 3.48438,-4.351563 0,-2.519531 -1.46484,-4.351562 -3.48438,-4.351562 m 0,10.761719 c -2.96484,0 -5.96093,-2.199219 -5.96093,-6.410157 0,-4.226562 2.99609,-6.433593 5.96093,-6.433593 2.94141,0 5.9336,2.199218 5.9336,6.410156 0,4.222656 -2.99219,6.433594 -5.9336,6.433594"
       id="path72" />
    <path
       fill-rule="nonzero"
       fill="#ffffff"
       fill-opacity="1"
       d="m 464.72266,43.164062 h -7.32032 v -12.375 h 2.39844 v 10.257813 h 4.57813 l 0.34375,2.117187"
       id="path74" />
    <path
       fill-rule="nonzero"
       fill="#ffffff"
       fill-opacity="1"
       d="m 474.03906,43.402344 c -3.16015,0 -5.05078,-1.898438 -5.05078,-5.078125 v -7.535157 h 2.39844 v 7.441407 c 0,1.988281 0.94922,3.082031 2.67578,3.082031 1.76562,0 2.69531,-1.046875 2.69531,-3.035156 v -7.488282 h 2.42578 v 7.441407 c 0,3.238281 -1.92578,5.171875 -5.14453,5.171875"
       id="path76" />
    <path
       fill-rule="nonzero"
       fill="#ffffff"
       fill-opacity="1"
       d="m 493.54297,43.210938 h -2.32031 l -3.30079,-9.382813 -0.6875,9.335937 h -2.20312 l 0.97656,-12.375 h 3.26172 l 3.23828,9.480469 3.28125,-9.480469 h 3.19141 l 0.97656,12.375 h -2.39844 l -0.70703,-9.335937 -3.30859,9.382813"
       id="path78" />
    <path
       fill-rule="nonzero"
       fill="#ffffff"
       fill-opacity="1"
       d="m 508.74219,35.71875 h 1.57422 c 1.375,0 2.07421,-0.515625 2.07421,-1.527344 0,-0.585937 -0.20312,-1.363281 -2.0039,-1.363281 h -1.64453 z m 0,5.429688 h 1.78515 c 1.60938,0 2.39453,-0.550782 2.39453,-1.675782 0,-1.183594 -0.79687,-1.789062 -2.36718,-1.789062 h -1.8125 z m 1.76562,2.015624 h -4.07031 v -12.375 h 4.04297 c 2.61328,0 4.17187,1.199219 4.17187,3.207032 0,1.1875 -0.52343,2.0625 -1.54297,2.609375 1.38282,0.503906 2.08985,1.46875 2.08985,2.867187 0,2.375 -1.66406,3.691406 -4.69141,3.691406"
       id="path80" />
    <path
       fill-rule="nonzero"
       fill="#ffffff"
       fill-opacity="1"
       d="m 523.69531,43.164062 h -2.42578 v -12.375 h 2.42578 v 12.375"
       id="path82" />
    <path
       fill-rule="nonzero"
       fill="#ffffff"
       fill-opacity="1"
       d="m 532.65625,37.988281 h 3.59766 c -0.22266,-0.628906 -1.125,-3.0625 -1.78907,-4.851562 z m 5.60156,5.410157 -1.19922,-3.273438 h -5.1875 l -1.125,3.039062 H 528.375 l 4.87891,-12.519531 h 2.5664 l 4.8125,12.21875 -2.375,0.535157"
       id="path84" />
    <path
       fill-rule="nonzero"
       fill="#ffffff"
       fill-opacity="1"
       d="M 99.074219,81.699219 V 67.898438 h 8.019531 v 2.238281 h -5.39844 v 3.28125 h 4.16016 l 0.35937,2.222656 h -4.51953 v 3.820313 h 5.60157 v 2.238281 h -8.222661"
       id="path86" />
    <path
       fill-rule="nonzero"
       fill="#ffffff"
       fill-opacity="1"
       d="m 115.35938,76.878906 c -2.78125,0.339844 -3.44141,1.160156 -3.44141,2.082032 0,0.699218 0.4375,1.121093 1.17969,1.121093 0.82031,0 1.60156,-0.382812 2.26172,-1.042969 z m 0.33984,4.820313 -0.20313,-1.257813 c -0.77734,0.820313 -1.77734,1.460938 -3.21875,1.460938 -1.64062,0 -2.74218,-1.003906 -2.74218,-2.683594 0,-2.339844 1.92187,-3.359375 5.82422,-3.738281 v -0.28125 c 0,-1.039063 -0.60157,-1.441407 -1.66407,-1.441407 -1.11718,0 -2.17968,0.320313 -3.21875,0.78125 l -0.30078,-1.921874 c 1.1211,-0.4375 2.30078,-0.777344 3.84375,-0.777344 2.5,0 3.73828,0.917968 3.73828,3.238281 v 6.621094 h -2.05859"
       id="path88" />
    <path
       fill-rule="nonzero"
       fill="#ffffff"
       fill-opacity="1"
       d="m 123.28516,76.160156 v 5.539063 h -2.40235 v -9.660157 h 2.04297 l 0.30078,1.941407 c 0.63672,-1.121094 1.59766,-2.0625 3.09766,-2.140625 l 0.38281,2.378906 c -1.5039,0.101562 -2.74219,0.898438 -3.42187,1.941406"
       id="path90" />
    <path
       fill-rule="nonzero"
       fill="#ffffff"
       fill-opacity="1"
       d="m 133.03906,81.859375 c -1.89844,0 -3.17969,-0.699219 -3.17969,-2.898437 V 74 H 128.5 v -1.960938 h 1.35937 v -3.0625 l 2.36329,-0.359374 v 3.421874 h 1.97656 L 134.5,74 h -2.27734 v 4.558594 c 0,0.78125 0.35937,1.203125 1.27734,1.203125 0.28125,0 0.53906,-0.02344 0.76172,-0.08203 l 0.30078,2.019531 c -0.38281,0.08203 -0.82031,0.160156 -1.52344,0.160156"
       id="path92" />
    <path
       fill-rule="nonzero"
       fill="#ffffff"
       fill-opacity="1"
       d="m 142.95703,81.699219 v -6.320313 c 0,-0.839844 -0.35937,-1.421875 -1.23828,-1.421875 -0.76172,0 -1.50391,0.480469 -2.20313,1.222657 v 6.519531 h -2.39843 v -14.0625 l 2.39843,-0.378907 v 6 c 0.80079,-0.738281 1.80079,-1.417968 3.08204,-1.417968 1.80078,0 2.75781,1.097656 2.75781,2.898437 v 6.960938 h -2.39844"
       id="path94" />
    <path
       fill-rule="nonzero"
       fill="#ffffff"
       fill-opacity="1"
       d="m 151.03906,78.78125 c 0.14063,0.480469 0.22266,0.957031 0.22266,1.417969 0,1.441406 -0.66016,2.882812 -2.22266,4.382812 l -1.33984,-0.601562 C 148.5,82.660156 148.82031,81.539062 148.82031,80.5 c 0,-0.578125 -0.10156,-1.140625 -0.26172,-1.71875 h 2.48047"
       id="path96" />
    <path
       fill-rule="nonzero"
       fill="#ffffff"
       fill-opacity="1"
       d="m 164.26172,69.839844 c -2.36328,0 -3.78125,1.9375 -3.78125,4.960937 0,3.019531 1.41797,4.960938 3.78125,4.960938 2.3789,0 3.80078,-1.941407 3.80078,-4.960938 0,-3.023437 -1.44141,-4.960937 -3.80078,-4.960937 z m -0.0234,12.121094 c -3.91797,0 -6.46094,-2.882813 -6.46094,-7.140626 0,-4.28125 2.5625,-7.183593 6.50391,-7.183593 3.96094,0 6.46094,2.882812 6.46094,7.140625 0,4.261718 -2.54297,7.183594 -6.50391,7.183594"
       id="path98" />
    <path
       fill-rule="nonzero"
       fill="#ffffff"
       fill-opacity="1"
       d="m 177.75781,81.878906 c -2.70312,0 -4.60156,-1.796875 -4.60156,-4.960937 0,-3.359375 2.09766,-5.078125 4.67969,-5.078125 1.28125,0 2.26172,0.339844 3.01953,0.820312 l -0.33985,2.160156 c -0.82031,-0.621093 -1.60156,-0.902343 -2.55859,-0.902343 -1.38281,0 -2.38281,1.019531 -2.38281,2.941406 0,2 1.08203,2.960937 2.54297,2.960937 0.83984,0 1.59765,-0.21875 2.51953,-0.921874 l 0.30078,2.042968 c -0.98047,0.679688 -1.96094,0.9375 -3.17969,0.9375"
       id="path100" />
    <path
       fill-rule="nonzero"
       fill="#ffffff"
       fill-opacity="1"
       d="m 185.38281,75.839844 h 3.85938 c -0.16016,-1.5 -0.76172,-2.339844 -1.92188,-2.339844 -0.95703,0 -1.75781,0.777344 -1.9375,2.339844 z m 2.32031,6.0625 c -2.70312,0 -4.72265,-1.542969 -4.72265,-5.023438 0,-3.140625 1.8789,-5.039062 4.40234,-5.039062 2.89844,0 4.19922,2.179687 4.19922,4.917968 0,0.203126 -0.0195,0.441407 -0.0195,0.582032 h -6.22266 c 0.1211,1.898437 1.14063,2.699218 2.6211,2.699218 1.24218,0 2.26172,-0.460937 3.32031,-1.199218 l 0.28125,1.878906 c -1.03906,0.722656 -2.30078,1.183594 -3.85938,1.183594"
       id="path102" />
    <path
       fill-rule="nonzero"
       fill="#ffffff"
       fill-opacity="1"
       d="m 199.52734,76.878906 c -2.78125,0.339844 -3.4414,1.160156 -3.4414,2.082032 0,0.699218 0.4375,1.121093 1.17968,1.121093 0.82032,0 1.60157,-0.382812 2.26172,-1.042969 z m 0.33985,4.820313 -0.20313,-1.257813 c -0.77734,0.820313 -1.77734,1.460938 -3.21875,1.460938 -1.64062,0 -2.74219,-1.003906 -2.74219,-2.683594 0,-2.339844 1.92188,-3.359375 5.82422,-3.738281 v -0.28125 c 0,-1.039063 -0.60156,-1.441407 -1.66406,-1.441407 -1.11719,0 -2.17969,0.320313 -3.21875,0.78125 l -0.30078,-1.921874 c 1.12109,-0.4375 2.30078,-0.777344 3.84375,-0.777344 2.5,0 3.73828,0.917968 3.73828,3.238281 v 6.621094 h -2.05859"
       id="path104" />
    <path
       fill-rule="nonzero"
       fill="#ffffff"
       fill-opacity="1"
       d="m 210.89453,81.699219 v -6.320313 c 0,-0.839844 -0.35937,-1.421875 -1.24219,-1.421875 -0.75781,0 -1.5,0.480469 -2.19922,1.222657 v 6.519531 h -2.40234 v -9.660157 h 2.04297 l 0.21875,1.359376 c 0.90234,-0.859376 1.92187,-1.558594 3.22266,-1.558594 1.80078,0 2.75781,1.097656 2.75781,2.898437 v 6.960938 h -2.39844"
       id="path106" />
    <path
       fill-rule="nonzero"
       fill="#ffffff"
       fill-opacity="1"
       d="m 226.85156,76.878906 c -2.78125,0.339844 -3.4414,1.160156 -3.4414,2.082032 0,0.699218 0.4414,1.121093 1.18359,1.121093 0.82031,0 1.59766,-0.382812 2.25781,-1.042969 z m 0.33985,4.820313 -0.19922,-1.257813 c -0.77735,0.820313 -1.78125,1.460938 -3.21875,1.460938 -1.64063,0 -2.74219,-1.003906 -2.74219,-2.683594 0,-2.339844 1.92187,-3.359375 5.82031,-3.738281 v -0.28125 c 0,-1.039063 -0.59765,-1.441407 -1.66015,-1.441407 -1.1211,0 -2.17969,0.320313 -3.21875,0.78125 l -0.30079,-1.921874 c 1.1211,-0.4375 2.30079,-0.777344 3.83985,-0.777344 2.5,0 3.74219,0.917968 3.74219,3.238281 v 6.621094 h -2.0625"
       id="path108" />
    <path
       fill-rule="nonzero"
       fill="#ffffff"
       fill-opacity="1"
       d="m 238.22266,81.699219 v -6.320313 c 0,-0.839844 -0.36329,-1.421875 -1.24219,-1.421875 -0.76172,0 -1.5,0.480469 -2.19922,1.222657 v 6.519531 h -2.40234 v -9.660157 h 2.04296 l 0.21875,1.359376 c 0.89844,-0.859376 1.92188,-1.558594 3.21875,-1.558594 1.80079,0 2.76172,1.097656 2.76172,2.898437 v 6.960938 h -2.39843"
       id="path110" />
    <path
       fill-rule="nonzero"
       fill="#ffffff"
       fill-opacity="1"
       d="M 249.76953,74.277344 C 249.16797,74 248.70703,73.859375 247.89062,73.859375 c -1.26171,0 -2.18359,1.019531 -2.18359,3.140625 0,1.878906 0.80078,2.761719 1.85938,2.761719 0.88281,0 1.5625,-0.523438 2.20312,-1.320313 z m 0.33984,7.421875 -0.19921,-1.339844 c -0.67969,0.820313 -1.6211,1.542969 -2.96094,1.542969 -2.01953,0 -3.64063,-1.503906 -3.64063,-4.761719 0,-3.601563 1.98047,-5.203125 4.21875,-5.203125 0.92188,0 1.66016,0.160156 2.24219,0.359375 v -4.660156 l 2.39844,-0.378907 v 14.441407 h -2.0586"
       id="path112" />
    <path
       fill-rule="nonzero"
       fill="#ffffff"
       fill-opacity="1"
       d="m 264.26953,76.039062 h 3.77734 l -1.8789,-5.339843 z m 0.59766,-8.203124 h 2.82031 l 5.0625,13.523437 -2.64063,0.480469 -1.32031,-3.640625 h -5.24219 l -1.23828,3.5 h -2.62109 l 5.17969,-13.863281"
       id="path114" />
    <path
       fill-rule="nonzero"
       fill="#ffffff"
       fill-opacity="1"
       d="m 278.52734,81.859375 c -1.89843,0 -3.17968,-0.699219 -3.17968,-2.898437 V 74 h -1.35938 v -1.960938 h 1.35938 v -3.0625 l 2.36328,-0.359374 v 3.421874 h 1.98047 L 279.98828,74 h -2.27734 v 4.558594 c 0,0.78125 0.35937,1.203125 1.27734,1.203125 0.28125,0 0.54297,-0.02344 0.76172,-0.08203 l 0.30078,2.019531 c -0.37891,0.08203 -0.82031,0.160156 -1.52344,0.160156"
       id="path116" />
    <path
       fill-rule="nonzero"
       fill="#ffffff"
       fill-opacity="1"
       d="m 294.03125,81.699219 v -6.320313 c 0,-0.839844 -0.30078,-1.421875 -1.17969,-1.421875 -0.74219,0 -1.4414,0.480469 -2.14062,1.203125 v 6.539063 h -2.40235 v -6.320313 c 0,-0.839844 -0.32031,-1.421875 -1.19922,-1.421875 -0.74218,0 -1.4414,0.480469 -2.14062,1.203125 v 6.539063 h -2.40234 v -9.660157 h 2.04296 l 0.21875,1.359376 c 0.90235,-0.859376 1.88282,-1.558594 3.1836,-1.558594 1.3789,0 2.11719,0.617187 2.47656,1.558594 0.86328,-0.859376 1.92188,-1.558594 3.22266,-1.558594 1.82031,0 2.72265,1.097656 2.72265,2.898437 v 6.960938 h -2.40234"
       id="path118" />
    <path
       fill-rule="nonzero"
       fill="#ffffff"
       fill-opacity="1"
       d="m 303.61719,73.820312 c -1.41797,0 -2.17969,1.257813 -2.17969,3.058594 0,1.761719 0.78125,3.0625 2.17969,3.0625 1.48437,0 2.24218,-1.261718 2.24218,-3.0625 0,-1.78125 -0.80078,-3.058594 -2.24218,-3.058594 z m 0,8.082032 c -2.6211,0 -4.51953,-1.882813 -4.51953,-5.023438 0,-3.140625 1.92187,-5.039062 4.54296,-5.039062 2.63672,0 4.5586,1.898437 4.5586,5.039062 0,3.140625 -1.9375,5.023438 -4.58203,5.023438"
       id="path120" />
    <path
       fill-rule="nonzero"
       fill="#ffffff"
       fill-opacity="1"
       d="m 314.05469,81.878906 c -1.40235,0 -2.83985,-0.4375 -3.76172,-0.9375 l 0.32031,-2 c 1.03906,0.679688 2.32031,1.140625 3.52344,1.140625 1.03906,0 1.59765,-0.382812 1.59765,-1.003906 0,-0.679687 -0.42187,-0.957031 -1.96093,-1.339844 -2.33985,-0.597656 -3.32032,-1.277343 -3.32032,-3.039062 0,-1.660157 1.32032,-2.839844 3.5625,-2.839844 1.25782,0 2.41797,0.238281 3.37891,0.679687 l -0.32031,2 C 316.11328,74 314.97656,73.660156 314.01562,73.660156 c -0.90234,0 -1.33984,0.339844 -1.33984,0.878906 0,0.519532 0.35938,0.800782 1.80078,1.179688 2.5,0.640625 3.47656,1.320312 3.47656,3.140625 0,1.902344 -1.35937,3.019531 -3.89843,3.019531"
       id="path122" />
    <path
       fill-rule="nonzero"
       fill="#ffffff"
       fill-opacity="1"
       d="m 325.17187,73.957031 c -0.85937,0 -1.53906,0.542969 -2.17968,1.363281 v 4.140626 c 0.57812,0.277343 1.03906,0.417968 1.85937,0.417968 1.24219,0 2.17969,-1.019531 2.17969,-3.140625 0,-1.859375 -0.77734,-2.78125 -1.85938,-2.78125 z m 0.0586,7.84375 c -0.91797,0 -1.66016,-0.160156 -2.23828,-0.378906 V 85.0625 l -2.39844,0.359375 V 72.039062 h 2.03906 l 0.21875,1.320313 c 0.67969,-0.78125 1.6211,-1.519531 2.96094,-1.519531 2.01953,0 3.64062,1.519531 3.64062,4.757812 0,3.601563 -2,5.203125 -4.22265,5.203125"
       id="path124" />
    <path
       fill-rule="nonzero"
       fill="#ffffff"
       fill-opacity="1"
       d="m 338.02734,81.699219 v -6.320313 c 0,-0.839844 -0.35547,-1.421875 -1.23828,-1.421875 -0.76172,0 -1.5,0.480469 -2.19922,1.222657 v 6.519531 h -2.40234 v -14.0625 l 2.40234,-0.378907 v 6 c 0.80078,-0.738281 1.80078,-1.417968 3.08203,-1.417968 1.80079,0 2.75782,1.097656 2.75782,2.898437 v 6.960938 h -2.40235"
       id="path126" />
    <path
       fill-rule="nonzero"
       fill="#ffffff"
       fill-opacity="1"
       d="m 345.48047,75.839844 h 3.85937 c -0.16015,-1.5 -0.76172,-2.339844 -1.91797,-2.339844 -0.96093,0 -1.76171,0.777344 -1.9414,2.339844 z m 2.32031,6.0625 c -2.69922,0 -4.72266,-1.542969 -4.72266,-5.023438 0,-3.140625 1.88282,-5.039062 4.40235,-5.039062 2.89844,0 4.19922,2.179687 4.19922,4.917968 0,0.203126 -0.0195,0.441407 -0.0195,0.582032 h -6.22266 c 0.12109,1.898437 1.14062,2.699218 2.62109,2.699218 1.24219,0 2.26172,-0.460937 3.32422,-1.199218 l 0.27735,1.878906 c -1.03907,0.722656 -2.30079,1.183594 -3.85938,1.183594"
       id="path128" />
    <path
       fill-rule="nonzero"
       fill="#ffffff"
       fill-opacity="1"
       d="m 356.85937,76.160156 v 5.539063 h -2.39843 V 72.039062 H 356.5 l 0.30078,1.941407 c 0.63672,-1.121094 1.59766,-2.0625 3.09766,-2.140625 l 0.3789,2.378906 c -1.5,0.101562 -2.73828,0.898438 -3.41797,1.941406"
       id="path130" />
    <path
       fill-rule="nonzero"
       fill="#ffffff"
       fill-opacity="1"
       d="m 362.14062,81.699219 v -9.660157 h 2.39844 v 9.660157 z m 1.21875,-11.28125 c -0.80078,0 -1.4414,-0.558594 -1.4414,-1.359375 0,-0.820313 0.64062,-1.402344 1.4414,-1.402344 0.78125,0 1.41797,0.582031 1.41797,1.402344 0,0.800781 -0.63672,1.359375 -1.41797,1.359375"
       id="path132" />
    <path
       fill-rule="nonzero"
       fill="#ffffff"
       fill-opacity="1"
       d="m 371.83203,81.878906 c -2.69922,0 -4.60156,-1.796875 -4.60156,-4.960937 0,-3.359375 2.10156,-5.078125 4.67969,-5.078125 1.28125,0 2.26562,0.339844 3.02343,0.820312 l -0.33984,2.160156 c -0.82031,-0.621093 -1.60156,-0.902343 -2.5625,-0.902343 -1.37891,0 -2.37891,1.019531 -2.37891,2.941406 0,2 1.07813,2.960937 2.53907,2.960937 0.83984,0 1.60156,-0.21875 2.52343,-0.921874 l 0.30078,2.042968 c -0.98437,0.679688 -1.96093,0.9375 -3.18359,0.9375"
       id="path134" />
    <path
       fill-rule="nonzero"
       fill="#ffffff"
       fill-opacity="1"
       d="m 386.83203,81.859375 c -1.67969,0 -3.12109,-0.378906 -4.33984,-0.960937 l 0.39843,-2.417969 c 1.16016,0.679687 2.60157,1.21875 3.98047,1.21875 1.22266,0 2.0625,-0.578125 2.0625,-1.679688 0,-1.019531 -0.48047,-1.441406 -2.48047,-2.300781 -2.68359,-1.101562 -3.76171,-1.980469 -3.76171,-4.121094 0,-2.441406 1.8789,-3.859375 4.46093,-3.859375 1.5625,0 2.64063,0.320313 3.64063,0.839844 l -0.39844,2.398437 c -1,-0.660156 -2.17969,-1.078124 -3.26172,-1.078124 -1.32031,0 -1.90234,0.640624 -1.90234,1.480468 0,0.878906 0.4414,1.300782 2.36328,2.101563 2.83984,1.160156 3.87891,2.140625 3.87891,4.277343 0,2.703126 -1.98047,4.101563 -4.64063,4.101563"
       id="path136" />
    <path
       fill-rule="nonzero"
       fill="#ffffff"
       fill-opacity="1"
       d="m 398.41406,81.878906 c -2.69922,0 -4.59765,-1.796875 -4.59765,-4.960937 0,-3.359375 2.09765,-5.078125 4.67968,-5.078125 1.28125,0 2.26172,0.339844 3.02344,0.820312 l -0.34375,2.160156 c -0.82031,-0.621093 -1.60156,-0.902343 -2.55859,-0.902343 -1.38282,0 -2.38282,1.019531 -2.38282,2.941406 0,2 1.08204,2.960937 2.54297,2.960937 0.83985,0 1.60157,-0.21875 2.51953,-0.921874 l 0.30079,2.042968 c -0.98047,0.679688 -1.96094,0.9375 -3.1836,0.9375"
       id="path138" />
    <path
       fill-rule="nonzero"
       fill="#ffffff"
       fill-opacity="1"
       d="m 404.31641,81.699219 v -9.660157 h 2.40234 v 9.660157 z m 1.21875,-11.28125 c -0.79688,0 -1.4375,-0.558594 -1.4375,-1.359375 0,-0.820313 0.64062,-1.402344 1.4375,-1.402344 0.78125,0 1.42187,0.582031 1.42187,1.402344 0,0.800781 -0.64062,1.359375 -1.42187,1.359375"
       id="path140" />
    <path
       fill-rule="nonzero"
       fill="#ffffff"
       fill-opacity="1"
       d="m 411.78906,75.839844 h 3.86328 c -0.16015,-1.5 -0.75781,-2.339844 -1.92187,-2.339844 -0.96094,0 -1.75781,0.777344 -1.94141,2.339844 z m 2.32031,6.0625 c -2.69921,0 -4.71875,-1.542969 -4.71875,-5.023438 0,-3.140625 1.87891,-5.039062 4.40235,-5.039062 2.89844,0 4.19922,2.179687 4.19922,4.917968 0,0.203126 -0.0195,0.441407 -0.0195,0.582032 h -6.21875 c 0.11718,1.898437 1.13671,2.699218 2.61718,2.699218 1.24219,0 2.26172,-0.460937 3.32032,-1.199218 l 0.28125,1.878906 c -1.03907,0.722656 -2.30079,1.183594 -3.86329,1.183594"
       id="path142" />
    <path
       fill-rule="nonzero"
       fill="#ffffff"
       fill-opacity="1"
       d="m 426.61328,81.699219 v -6.320313 c 0,-0.839844 -0.35937,-1.421875 -1.24219,-1.421875 -0.76172,0 -1.5,0.480469 -2.19922,1.222657 v 6.519531 h -2.40234 v -9.660157 h 2.04297 l 0.21875,1.359376 c 0.90234,-0.859376 1.92187,-1.558594 3.22266,-1.558594 1.80078,0 2.75781,1.097656 2.75781,2.898437 v 6.960938 h -2.39844"
       id="path144" />
    <path
       fill-rule="nonzero"
       fill="#ffffff"
       fill-opacity="1"
       d="m 436.27734,81.878906 c -2.69922,0 -4.59765,-1.796875 -4.59765,-4.960937 0,-3.359375 2.09765,-5.078125 4.67968,-5.078125 1.28125,0 2.26172,0.339844 3.02344,0.820312 l -0.34375,2.160156 c -0.8164,-0.621093 -1.60156,-0.902343 -2.55859,-0.902343 -1.37891,0 -2.37891,1.019531 -2.37891,2.941406 0,2 1.07813,2.960937 2.53906,2.960937 0.83985,0 1.59766,-0.21875 2.51954,-0.921874 l 0.30078,2.042968 c -0.98047,0.679688 -1.96094,0.9375 -3.1836,0.9375"
       id="path146" />
    <path
       fill-rule="nonzero"
       fill="#ffffff"
       fill-opacity="1"
       d="m 443.90234,75.839844 h 3.86328 c -0.16015,-1.5 -0.75781,-2.339844 -1.91796,-2.339844 -0.96094,0 -1.76172,0.777344 -1.94532,2.339844 z m 2.32422,6.0625 c -2.70312,0 -4.72265,-1.542969 -4.72265,-5.023438 0,-3.140625 1.88281,-5.039062 4.40234,-5.039062 2.89844,0 4.19922,2.179687 4.19922,4.917968 0,0.203126 -0.0195,0.441407 -0.0195,0.582032 h -6.22266 c 0.12109,1.898437 1.14063,2.699218 2.62109,2.699218 1.24219,0 2.26172,-0.460937 3.32422,-1.199218 l 0.27735,1.878906 c -1.03907,0.722656 -2.30078,1.183594 -3.85938,1.183594"
       id="path148" />
    <path
       fill-rule="nonzero"
       fill="#ffffff"
       fill-opacity="1"
       d="m 456.14062,81.878906 c -1.40234,0 -2.83984,-0.4375 -3.75781,-0.9375 l 0.31641,-2 c 1.03906,0.679688 2.32031,1.140625 3.52344,1.140625 1.03906,0 1.59765,-0.382812 1.59765,-1.003906 0,-0.679687 -0.41797,-0.957031 -1.96094,-1.339844 -2.33984,-0.597656 -3.32031,-1.277343 -3.32031,-3.039062 0,-1.660157 1.32031,-2.839844 3.5625,-2.839844 1.25781,0 2.41797,0.238281 3.37891,0.679687 l -0.32031,2 C 458.19922,74 457.0625,73.660156 456.10156,73.660156 c -0.90234,0 -1.33984,0.339844 -1.33984,0.878906 0,0.519532 0.35937,0.800782 1.80078,1.179688 2.5,0.640625 3.48047,1.320312 3.48047,3.140625 0,1.902344 -1.35938,3.019531 -3.90235,3.019531"
       id="path150" />
    <path
       fill-rule="nonzero"
       fill="#ffffff"
       fill-opacity="1"
       d="m 100.83203,93.886719 v 4.941406 h 4.44141 l 0.20312,1.242185 h -4.64453 v 6.37891 H 99.453125 V 92.648438 H 106.375 v 1.238281 h -5.54297"
       id="path152" />
    <path
       fill-rule="nonzero"
       fill="#ffffff"
       fill-opacity="1"
       d="m 113.97266,101.42969 c -3.71875,0.3789 -4.75782,1.28125 -4.75782,2.55859 0,1.02344 0.69922,1.54297 1.69922,1.54297 1.01953,0 2.14063,-0.5625 3.0586,-1.42187 z m 0.30078,5.01953 -0.21875,-1.25781 c -0.87891,0.82031 -1.98047,1.46093 -3.33985,1.46093 -1.64062,0 -2.82031,-0.90234 -2.82031,-2.58203 0,-2.22265 1.79688,-3.26172 6.07813,-3.67968 v -0.621099 c 0,-1.28125 -0.75782,-1.820312 -1.95703,-1.820312 -1.1211,0 -2.22266,0.339843 -3.26172,0.839843 l -0.17969,-1.179687 c 1.09766,-0.480469 2.17969,-0.820313 3.51953,-0.820313 2.10156,0 3.17969,0.980469 3.17969,2.921876 v 6.738282 h -1"
       id="path154" />
    <path
       fill-rule="nonzero"
       fill="#ffffff"
       fill-opacity="1"
       d="m 122.69141,106.65234 c -2.40235,0 -4.26172,-1.80078 -4.26172,-4.92187 0,-3.183595 1.91797,-4.941408 4.32031,-4.941408 1.28125,0 2.30078,0.398438 3.08203,0.960938 l -0.22265,1.320312 c -0.91797,-0.761718 -1.80079,-1.140624 -2.89844,-1.140624 -1.80078,0 -2.94141,1.460937 -2.94141,3.781252 0,2.33984 1.16016,3.78125 3.08203,3.78125 1,0 1.89844,-0.28125 2.87891,-1.1211 l 0.17969,1.19922 c -0.92188,0.71875 -1.94141,1.08203 -3.21875,1.08203"
       id="path156" />
    <path
       fill-rule="nonzero"
       fill="#ffffff"
       fill-opacity="1"
       d="m 135.30859,106.44922 -0.21875,-1.39844 c -1.03906,0.91797 -2.12109,1.60156 -3.40234,1.60156 -1.89844,0 -2.82031,-1.10156 -2.82031,-2.90234 v -6.761719 h 1.32031 v 6.523439 c 0,1.21875 0.5625,1.9375 1.76172,1.9375 1,0 2.01953,-0.59766 3.0625,-1.62109 v -6.839849 h 1.3164 v 9.460939 h -1.01953"
       id="path158" />
    <path
       fill-rule="nonzero"
       fill="#ffffff"
       fill-opacity="1"
       d="M 140.125,106.44922 V 92.328125 l 1.30078,-0.242187 V 106.44922 H 140.125"
       id="path160" />
    <path
       fill-rule="nonzero"
       fill="#ffffff"
       fill-opacity="1"
       d="m 148.15234,106.60938 c -1.48047,0 -2.46093,-0.57813 -2.46093,-2.32032 v -6.179685 h -1.46094 v -1.121094 h 1.46094 v -3.28125 l 1.30078,-0.21875 v 3.5 h 2.17968 l 0.17969,1.121094 h -2.35937 v 5.960935 c 0,0.96094 0.3789,1.37891 1.39843,1.37891 0.30079,0 0.66016,-0.0586 0.87891,-0.0977 l 0.20313,1.09766 c -0.28125,0.082 -0.76172,0.16016 -1.32032,0.16016"
       id="path162" />
    <path
       fill-rule="nonzero"
       fill="#ffffff"
       fill-opacity="1"
       d="m 156.16016,107.62891 c -0.67969,1.84375 -1.51954,2.42187 -2.92188,2.42187 -0.19922,0 -0.37891,-0.0391 -0.51953,-0.0586 l -0.17969,-1.16016 c 0.19922,0.0391 0.48047,0.0781 0.77735,0.0781 0.78125,0 1.24218,-0.33985 1.60156,-1.25782 l 0.4414,-1.14062 -3.58203,-9.402345 1.28125,-0.242187 2.94141,8.062502 2.80078,-7.941409 h 1.35938 l -4,10.640629"
       id="path164" />
    <path
       fill-rule="nonzero"
       fill="#ffffff"
       fill-opacity="1"
       d="m 171.17969,97.910156 c -1.88282,0 -2.90235,1.578125 -2.90235,3.820314 0,2.17969 1.03907,3.80078 2.90235,3.80078 1.91797,0 2.9375,-1.5625 2.9375,-3.80078 0,-2.179689 -1.03907,-3.820314 -2.9375,-3.820314 z m 0,8.742184 c -2.42188,0 -4.24219,-1.80078 -4.24219,-4.92187 0,-3.140626 1.85937,-4.941408 4.24219,-4.941408 2.46093,0 4.30078,1.800782 4.30078,4.941408 0,3.12109 -1.88281,4.92187 -4.30078,4.92187"
       id="path166" />
    <path
       fill-rule="nonzero"
       fill="#ffffff"
       fill-opacity="1"
       d="m 181.74609,93.347656 c -0.89843,0 -1.4375,0.398438 -1.4375,1.441406 v 2.199219 h 1.9375 l 0.17969,1.121094 h -2.11719 v 8.339845 h -1.30078 v -8.339845 h -1.4414 v -1.121094 h 1.4414 V 94.6875 c 0,-1.738281 1.03906,-2.539062 2.66016,-2.539062 0.30078,0 0.48047,0.01953 0.67969,0.03906 l 0.19921,1.21875 c -0.17968,-0.03906 -0.4414,-0.05859 -0.80078,-0.05859"
       id="path168" />
    <path
       fill-rule="nonzero"
       fill="#ffffff"
       fill-opacity="1"
       d="m 193.88672,106.60938 c -1.48047,0 -2.74219,-0.37891 -3.66016,-0.85938 l 0.19922,-1.39844 c 0.83984,0.53907 2.12109,1.03907 3.51953,1.03907 1.6211,0 2.83985,-0.92188 2.83985,-2.48047 0,-1.35938 -0.67969,-2.03907 -2.77735,-2.960941 -2.64062,-1.160157 -3.60156,-2.039063 -3.60156,-3.980469 0,-2.082031 1.67969,-3.480469 3.96094,-3.480469 1.30078,0 2.32031,0.300781 3.03906,0.71875 l -0.19922,1.382813 c -0.78125,-0.523438 -1.73828,-0.882813 -2.89844,-0.882813 -1.62109,0 -2.52343,0.980469 -2.52343,2.179688 0,1.242187 0.66015,1.84375 2.78125,2.78125 2.5625,1.121093 3.60156,2.121091 3.60156,4.140621 0,2.36329 -1.85938,3.80079 -4.28125,3.80079"
       id="path170" />
    <path
       fill-rule="nonzero"
       fill="#ffffff"
       fill-opacity="1"
       d="m 205.28516,106.65234 c -2.40235,0 -4.26172,-1.80078 -4.26172,-4.92187 0,-3.183595 1.91797,-4.941408 4.32031,-4.941408 1.28125,0 2.30078,0.398438 3.08203,0.960938 l -0.22266,1.320312 c -0.91796,-0.761718 -1.80078,-1.140624 -2.89843,-1.140624 -1.80078,0 -2.94141,1.460937 -2.94141,3.781252 0,2.33984 1.16016,3.78125 3.08203,3.78125 1,0 1.89844,-0.28125 2.87891,-1.1211 l 0.17969,1.19922 c -0.91797,0.71875 -1.94141,1.08203 -3.21875,1.08203"
       id="path172" />
    <path
       fill-rule="nonzero"
       fill="#ffffff"
       fill-opacity="1"
       d="m 211.58984,106.44922 v -9.460939 h 1.30078 v 9.460939 z M 212.25,94.726562 c -0.51953,0 -0.95703,-0.4375 -0.95703,-0.957031 0,-0.523437 0.4375,-0.960937 0.95703,-0.960937 0.52344,0 0.94141,0.4375 0.94141,0.960937 0,0.519531 -0.41797,0.957031 -0.94141,0.957031"
       id="path174" />
    <path
       fill-rule="nonzero"
       fill="#ffffff"
       fill-opacity="1"
       d="m 217.51172,100.76953 h 5.16015 c -0.12109,-1.699218 -0.9414,-2.921874 -2.46093,-2.921874 -1.48047,0 -2.46094,1.101563 -2.69922,2.921874 z m 2.8789,5.88281 c -2.48046,0 -4.26171,-1.68359 -4.26171,-4.9414 0,-3.042971 1.76171,-4.921878 4.08203,-4.921878 2.58203,0 3.82031,2.121094 3.82031,4.742188 v 0.27734 h -6.58203 c 0.043,2.33985 1.12109,3.70313 3.02344,3.70313 1.25781,0 2.35937,-0.5625 3.33984,-1.40234 l 0.19922,1.19921 c -0.94141,0.80079 -2.16016,1.34375 -3.6211,1.34375"
       id="path176" />
    <path
       fill-rule="nonzero"
       fill="#ffffff"
       fill-opacity="1"
       d="m 233.41797,106.44922 v -6.519532 c 0,-1.222657 -0.5586,-1.960938 -1.76172,-1.960938 -1,0 -2.01953,0.621094 -3.05859,1.640625 v 6.839845 h -1.32032 v -9.460939 h 1.01953 l 0.22266,1.402344 c 1.03906,-0.921875 2.11719,-1.601563 3.39844,-1.601563 1.8789,0 2.82031,1.078126 2.82031,2.898438 v 6.76172 h -1.32031"
       id="path178" />
    <path
       fill-rule="nonzero"
       fill="#ffffff"
       fill-opacity="1"
       d="m 242.16406,106.65234 c -2.40234,0 -4.26172,-1.80078 -4.26172,-4.92187 0,-3.183595 1.92188,-4.941408 4.32032,-4.941408 1.28125,0 2.30078,0.398438 3.08203,0.960938 l -0.21875,1.320312 c -0.92188,-0.761718 -1.80078,-1.140624 -2.90235,-1.140624 -1.80078,0 -2.9414,1.460937 -2.9414,3.781252 0,2.33984 1.16015,3.78125 3.08203,3.78125 1,0 1.89844,-0.28125 2.8789,-1.1211 l 0.17969,1.19922 c -0.91797,0.71875 -1.9375,1.08203 -3.21875,1.08203"
       id="path180" />
    <path
       fill-rule="nonzero"
       fill="#ffffff"
       fill-opacity="1"
       d="m 249.14062,100.76953 h 5.16016 c -0.11719,-1.699218 -0.9375,-2.921874 -2.46094,-2.921874 -1.48047,0 -2.45703,1.101563 -2.69922,2.921874 z m 2.87891,5.88281 c -2.48047,0 -4.25781,-1.68359 -4.25781,-4.9414 0,-3.042971 1.75781,-4.921878 4.07812,-4.921878 2.58203,0 3.82032,2.121094 3.82032,4.742188 v 0.27734 h -6.57813 c 0.0391,2.33985 1.11719,3.70313 3.01953,3.70313 1.26172,0 2.35938,-0.5625 3.33985,-1.40234 l 0.19921,1.19921 c -0.9375,0.80079 -2.16015,1.34375 -3.62109,1.34375"
       id="path182" />
  </g>
</svg>
